<?xml version="1.0" encoding="UTF-8"?>
<svg width="159px" height="40px" viewBox="0 0 159 40" version="1.1" xmlns="http://www.w3.org/2000/svg" xmlns:xlink="http://www.w3.org/1999/xlink">
    <title>logo-白</title>
    <g id="页面-1" stroke="none" stroke-width="1" fill="none" fill-rule="evenodd">
        <g id="06身份认证4" transform="translate(-21.000000, -12.000000)">
            <g id="logo-白" transform="translate(21.000000, 12.000000)">
                <path d="M46.4565217,11.3043478 C46.7326641,11.3043478 46.9565217,11.5282055 46.9565217,11.8043478 L46.9565217,13.4130435 C46.9565217,13.6891859 46.7326641,13.9130435 46.4565217,13.9130435 L40,13.9130435 C38.5592572,13.9130435 37.3913043,15.0809963 37.3913043,16.5217391 C37.3913043,17.9110269 38.4773217,19.0466616 39.8467193,19.1260064 L39.9927818,19.1302262 L40.0000008,19.1303826 L42.6086957,19.1304348 C45.4901813,19.1304348 47.826087,21.4663404 47.826087,24.3478261 C47.826087,27.2293117 45.4901813,29.5652174 42.6086957,29.5652174 L36.1521739,29.5652174 C35.8760315,29.5652174 35.6521739,29.3413598 35.6521739,29.0652174 L35.6521739,27.4565217 C35.6521739,27.1803794 35.8760315,26.9565217 36.1521739,26.9565217 L42.6086957,26.9565217 C44.0494385,26.9565217 45.2173913,25.7885689 45.2173913,24.3478261 C45.2173913,22.9585384 44.1313739,21.8229036 42.7619763,21.7435589 L42.6159139,21.739339 L40,21.7391304 C37.1185143,21.7391304 34.7826087,19.4032248 34.7826087,16.5217391 C34.7826087,13.6402535 37.1185143,11.3043478 40,11.3043478 L46.4565217,11.3043478 Z M58.7858585,11.3043478 C58.9933282,11.3043478 59.1792441,11.4324722 59.2531023,11.6263502 L65.8286717,28.8872197 C65.9269771,29.1452714 65.7974772,29.4341559 65.5394255,29.5324613 C65.4825795,29.5541169 65.422259,29.5652174 65.3614278,29.5652174 L63.3961869,29.5652174 C63.1855422,29.5652174 62.9974896,29.4332006 62.9259262,29.2350848 L61.1606087,24.3473478 L53.6196087,24.3473478 L51.8541642,29.2351525 C51.7825813,29.4332332 51.5945463,29.5652174 51.383928,29.5652174 L49.4211809,29.5652174 C49.1450385,29.5652174 48.9211809,29.3413598 48.9211809,29.0652174 C48.9211809,29.0043862 48.9322814,28.9440657 48.953937,28.8872197 L55.5295064,11.6263502 C55.6033646,11.4324722 55.7892804,11.3043478 55.9967502,11.3043478 L58.7858585,11.3043478 Z M79.5,11.3043478 C79.7761424,11.3043478 80,11.5282055 80,11.8043478 L80,13.4130435 C80,13.6891859 79.7761424,13.9130435 79.5,13.9130435 L74.3472953,13.9130435 L74.3472953,29.0652174 C74.3472953,29.3413598 74.1234377,29.5652174 73.8472953,29.5652174 L72.2399796,29.5652174 C71.9638372,29.5652174 71.7399796,29.3413598 71.7399796,29.0652174 L71.7399796,13.9130435 L66.5869565,13.9130435 C66.3108141,13.9130435 66.0869565,13.6891859 66.0869565,13.4130435 L66.0869565,11.8043478 C66.0869565,11.5282055 66.3108141,11.3043478 66.5869565,11.3043478 L79.5,11.3043478 Z M90.0902063,11.3043478 C90.2976761,11.3043478 90.4835919,11.4324722 90.5574502,11.6263502 L97.1330195,28.8872197 C97.2313249,29.1452714 97.101825,29.4341559 96.8437733,29.5324613 C96.7869274,29.5541169 96.7266068,29.5652174 96.6657757,29.5652174 L94.7005347,29.5652174 C94.48989,29.5652174 94.3018374,29.4332006 94.2302741,29.2350848 L92.4646087,24.3473478 L84.9236087,24.3473478 L83.158512,29.2351525 C83.0869291,29.4332332 82.8988941,29.5652174 82.6882758,29.5652174 L80.7255287,29.5652174 C80.4493863,29.5652174 80.2255287,29.3413598 80.2255287,29.0652174 C80.2255287,29.0043862 80.2366292,28.9440657 80.2582848,28.8872197 L86.8338542,11.6263502 C86.9077125,11.4324722 87.0936283,11.3043478 87.301098,11.3043478 L90.0902063,11.3043478 Z M101.23913,11.3043478 C101.515273,11.3043478 101.73913,11.5282055 101.73913,11.8043478 L101.73913,26.9565217 L109.065217,26.9565217 C109.34136,26.9565217 109.565217,27.1803794 109.565217,27.4565217 L109.565217,29.0652174 C109.565217,29.3413598 109.34136,29.5652174 109.065217,29.5652174 L99.6304348,29.5652174 C99.3542924,29.5652174 99.1304348,29.3413598 99.1304348,29.0652174 L99.1304348,11.8043478 C99.1304348,11.5282055 99.3542924,11.3043478 99.6304348,11.3043478 L101.23913,11.3043478 Z M119.347826,11.3043478 C122.10925,11.3043478 124.347826,13.5429241 124.347826,16.3043478 L124.347826,16.7391304 C124.347826,19.5005542 122.10925,21.7391304 119.347826,21.7391304 L114.781913,21.7383478 L114.782609,29.0652174 C114.782609,29.3413598 114.558751,29.5652174 114.282609,29.5652174 L112.673913,29.5652174 C112.397771,29.5652174 112.173913,29.3413598 112.173913,29.0652174 L112.173913,11.8043478 C112.173913,11.5282055 112.397771,11.3043478 112.673913,11.3043478 L119.347826,11.3043478 Z M129.065217,11.3043478 C129.34136,11.3043478 129.565217,11.5282055 129.565217,11.8043478 L129.565217,19.1304348 L137.391304,19.1304348 L137.391304,11.8043478 C137.391304,11.5282055 137.615162,11.3043478 137.891304,11.3043478 L139.5,11.3043478 C139.776142,11.3043478 140,11.5282055 140,11.8043478 L140,29.0652174 C140,29.3413598 139.776142,29.5652174 139.5,29.5652174 L137.891304,29.5652174 C137.615162,29.5652174 137.391304,29.3413598 137.391304,29.0652174 L137.391304,21.7391304 L129.565217,21.7391304 L129.565217,29.0652174 C129.565217,29.3413598 129.34136,29.5652174 129.065217,29.5652174 L127.456522,29.5652174 C127.180379,29.5652174 126.956522,29.3413598 126.956522,29.0652174 L126.956522,11.8043478 C126.956522,11.5282055 127.180379,11.3043478 127.456522,11.3043478 L129.065217,11.3043478 Z M151.829337,11.3043478 C152.036807,11.3043478 152.222722,11.4324722 152.296581,11.6263502 L158.87215,28.8872197 C158.970455,29.1452714 158.840955,29.4341559 158.582904,29.5324613 C158.526058,29.5541169 158.465737,29.5652174 158.404906,29.5652174 L156.439665,29.5652174 C156.22902,29.5652174 156.040968,29.4332006 155.969405,29.2350848 L154.203609,24.3473478 L146.663609,24.3473478 L144.897642,29.2351525 C144.82606,29.4332332 144.638025,29.5652174 144.427406,29.5652174 L142.464659,29.5652174 C142.188517,29.5652174 141.964659,29.3413598 141.964659,29.0652174 C141.964659,29.0043862 141.97576,28.9440657 141.997415,28.8872197 L148.572985,11.6263502 C148.646843,11.4324722 148.832759,11.3043478 149.040228,11.3043478 L151.829337,11.3043478 Z M150.434783,13.9130435 L147.606609,21.7383478 L153.261609,21.7383478 L150.434783,13.9130435 Z M88.6956522,13.9130435 L85.8666087,21.7383478 L91.5226087,21.7383478 L88.6956522,13.9130435 Z M57.3913043,13.9130435 L54.5626087,21.7383478 L60.2176087,21.7383478 L57.3913043,13.9130435 Z M119.130435,13.9130435 L114.781913,13.9123478 L114.781913,19.1303478 L119.130435,19.1304348 C120.571178,19.1304348 121.73913,17.962482 121.73913,16.5217391 C121.73913,15.1364095 120.659292,14.0032895 119.295413,13.9181758 L119.130435,13.9130435 Z" id="形状结合" fill="#363A4C"></path>
                <g id="编组-34">
                    <path d="M0.496128974,22.3192871 L19.3656942,11.3120407 C19.8427461,11.0337604 20.4550638,11.1948967 20.7333441,11.6719486 C20.8225568,11.8248846 20.8695652,11.998765 20.8695652,12.1758196 L20.8695652,27.2517166 C20.8695652,27.6073837 20.6806539,27.9362852 20.3734362,28.1154955 L1.50387103,39.1227419 C1.02681911,39.4010222 0.414501382,39.2398859 0.136221099,38.762834 C0.0470083978,38.609898 6.87816754e-16,38.4360176 0,38.258963 L0,23.183066 C1.51075558e-15,22.8273989 0.188911268,22.4984974 0.496128974,22.3192871 Z" id="矩形" fill="#00CCD1" opacity="0.902166631"></path>
                    <path d="M3.97438984,11.8845045 L22.8439551,0.877258098 C23.321007,0.598977815 23.9333247,0.760114059 24.211605,1.23716597 C24.3008177,1.39010203 24.3478261,1.56398236 24.3478261,1.741037 L24.3478261,16.816934 C24.3478261,17.1726011 24.1589148,17.5015026 23.8516971,17.6807129 L4.9821319,28.6879593 C4.50507998,28.9662396 3.89276225,28.8051033 3.61448197,28.3280514 C3.52526927,28.1751154 3.47826087,28.001235 3.47826087,27.8241804 L3.47826087,12.7482834 C3.47826087,12.3926163 3.66717214,12.0637148 3.97438984,11.8845045 Z" id="矩形" fill="#2222FF" opacity="0.901532283"></path>
                </g>
            </g>
        </g>
    </g>
</svg>